<svg width="680" height="320" viewBox="0 0 680 320" xmlns="http://www.w3.org/2000/svg" role="img">
  <title>Flowchart showing findMaxMin algorithm steps</title>
  <defs>
    <marker id="arrow" viewBox="0 0 10 10" refX="8" refY="5" markerWidth="6" markerHeight="6" orient="auto-start-reverse">
      <path d="M2 1L8 5L2 9" fill="none" stroke="#5F5E5A" stroke-width="1.5" stroke-linecap="round" stroke-linejoin="round"/>
    </marker>
  </defs>

  <!-- Step 1: Start -->
  <rect x="240" y="10" width="200" height="48" rx="24" fill="#E1F5EE" stroke="#0F6E56" stroke-width="1.5"/>
  <text x="340" y="39" text-anchor="middle" font-family="sans-serif" font-size="14" font-weight="500" fill="#085041">Start: Set max = min = arr[0]</text>
  <line x1="340" y1="58" x2="340" y2="90" stroke="#5F5E5A" stroke-width="1.5" marker-end="url(#arrow)"/>

  <!-- Step 2: Loop -->
  <rect x="210" y="90" width="260" height="48" rx="8" fill="#EEEDFE" stroke="#534AB7" stroke-width="1.5"/>
  <text x="340" y="119" text-anchor="middle" font-family="sans-serif" font-size="14" font-weight="500" fill="#26215C">Loop: for each element in array</text>
  <line x1="340" y1="138" x2="340" y2="170" stroke="#5F5E5A" stroke-width="1.5" marker-end="url(#arrow)"/>

  <!-- Step 3: Compare max -->
  <rect x="170" y="170" width="180" height="48" rx="8" fill="#FAEEDA" stroke="#854F0B" stroke-width="1.5"/>
  <text x="260" y="194" text-anchor="middle" font-family="sans-serif" font-size="13" font-weight="500" fill="#633806">if element &gt; max</text>
  <text x="260" y="210" text-anchor="middle" font-family="sans-serif" font-size="12" fill="#854F0B">&#x2192; update max</text>

  <!-- Step 4: Compare min -->
  <rect x="370" y="170" width="180" height="48" rx="8" fill="#E6F1FB" stroke="#185FA5" stroke-width="1.5"/>
  <text x="460" y="194" text-anchor="middle" font-family="sans-serif" font-size="13" font-weight="500" fill="#0C447C">if element &lt; min</text>
  <text x="460" y="210" text-anchor="middle" font-family="sans-serif" font-size="12" fill="#185FA5">&#x2192; update min</text>

  <line x1="340" y1="170" x2="280" y2="170" stroke="#5F5E5A" stroke-width="1" stroke-dasharray="4 3"/>
  <line x1="340" y1="170" x2="430" y2="170" stroke="#5F5E5A" stroke-width="1" stroke-dasharray="4 3"/>

  <!-- Step 5: Return -->
  <line x1="260" y1="218" x2="260" y2="268" stroke="#5F5E5A" stroke-width="1" stroke-dasharray="4 3"/>
  <line x1="460" y1="218" x2="460" y2="268" stroke="#5F5E5A" stroke-width="1" stroke-dasharray="4 3"/>
  <line x1="260" y1="268" x2="460" y2="268" stroke="#5F5E5A" stroke-width="1" stroke-dasharray="4 3"/>
  <line x1="340" y1="268" x2="340" y2="275" stroke="#5F5E5A" stroke-width="1.5" marker-end="url(#arrow)"/>

  <rect x="215" y="275" width="250" height="40" rx="20" fill="#E1F5EE" stroke="#0F6E56" stroke-width="1.5"/>
  <text x="340" y="300" text-anchor="middle" font-family="sans-serif" font-size="14" font-weight="500" fill="#085041">Return [max, min]</text>
</svg>
