<svg width="720" height="380" viewBox="0 0 720 380" xmlns="http://www.w3.org/2000/svg">
  <defs>
    <style>
      .bar{animation:growBar 1s ease forwards}
      .bar:nth-child(1){animation-delay:0.1s}
      .bar:nth-child(2){animation-delay:0.2s}
      .bar:nth-child(3){animation-delay:0.3s}
      .bar:nth-child(4){animation-delay:0.4s}
      .bar:nth-child(5){animation-delay:0.5s}
      .bar:nth-child(6){animation-delay:0.6s}
      .bar:nth-child(7){animation-delay:0.7s}
      .bar:nth-child(8){animation-delay:0.8s}
      @keyframes growBar{from{width:0}to{}}
    </style>
  </defs>
  <rect width="720" height="380" fill="#0d1117" rx="14"/>
  <text x="360" y="28" text-anchor="middle" fill="#a78bfa" font-family="monospace" font-size="14" font-weight="bold">Time Complexity Overview</text>
  <rect x="20" y="40" width="680" height="32" rx="6" fill="#1e1b4b"/>
  <text x="130" y="61" text-anchor="middle" fill="#a5b4fc" font-family="monospace" font-size="11" font-weight="bold">OPERATION</text>
  <text x="390" y="61" text-anchor="middle" fill="#a5b4fc" font-family="monospace" font-size="11" font-weight="bold">COMPLEXITY</text>
  <text x="560" y="61" text-anchor="middle" fill="#a5b4fc" font-family="monospace" font-size="11" font-weight="bold">VISUAL</text>
  <rect x="20" y="78" width="680" height="28" rx="4" fill="#0a1628"/>
  <text x="130" y="96" text-anchor="middle" fill="#e2e8f0" font-family="monospace" font-size="10">Prepend / Remove First</text>
  <text x="390" y="96" text-anchor="middle" fill="#34d399" font-family="monospace" font-size="11" font-weight="bold">O(1) &#8212; Constant</text>
  <rect class="bar" x="470" y="84" width="100" height="16" rx="4" fill="#059669"/>
  <text x="575" y="96" fill="#6ee7b7" font-family="monospace" font-size="9">&#9889; Fastest</text>
  <rect x="20" y="110" width="680" height="28" rx="4" fill="#0f172a"/>
  <text x="130" y="128" text-anchor="middle" fill="#e2e8f0" font-family="monospace" font-size="10">Get / Set (index)</text>
  <text x="390" y="128" text-anchor="middle" fill="#fbbf24" font-family="monospace" font-size="11" font-weight="bold">O(n) &#8212; Linear</text>
  <rect class="bar" x="470" y="116" width="200" height="16" rx="4" fill="#d97706"/>
  <text x="675" y="128" fill="#fbbf24" font-family="monospace" font-size="9">traverse</text>
  <rect x="20" y="142" width="680" height="28" rx="4" fill="#0a1628"/>
  <text x="130" y="160" text-anchor="middle" fill="#e2e8f0" font-family="monospace" font-size="10">Remove Last</text>
  <text x="390" y="160" text-anchor="middle" fill="#fbbf24" font-family="monospace" font-size="11" font-weight="bold">O(n) &#8212; Linear</text>
  <rect class="bar" x="470" y="148" width="200" height="16" rx="4" fill="#d97706"/>
  <rect x="20" y="174" width="680" height="28" rx="4" fill="#0f172a"/>
  <text x="130" y="192" text-anchor="middle" fill="#e2e8f0" font-family="monospace" font-size="10">Insert at Index</text>
  <text x="390" y="192" text-anchor="middle" fill="#fbbf24" font-family="monospace" font-size="11" font-weight="bold">O(n) &#8212; Linear</text>
  <rect class="bar" x="470" y="180" width="200" height="16" rx="4" fill="#d97706"/>
  <rect x="20" y="206" width="680" height="28" rx="4" fill="#0a1628"/>
  <text x="130" y="224" text-anchor="middle" fill="#e2e8f0" font-family="monospace" font-size="10">Remove at Index</text>
  <text x="390" y="224" text-anchor="middle" fill="#fbbf24" font-family="monospace" font-size="11" font-weight="bold">O(n) &#8212; Linear</text>
  <rect class="bar" x="470" y="212" width="200" height="16" rx="4" fill="#d97706"/>
  <rect x="20" y="238" width="680" height="28" rx="4" fill="#0f172a"/>
  <text x="130" y="256" text-anchor="middle" fill="#e2e8f0" font-family="monospace" font-size="10">Reverse</text>
  <text x="390" y="256" text-anchor="middle" fill="#fbbf24" font-family="monospace" font-size="11" font-weight="bold">O(n) &#8212; Linear</text>
  <rect class="bar" x="470" y="244" width="200" height="16" rx="4" fill="#7c3aed"/>
  <rect x="20" y="270" width="680" height="28" rx="4" fill="#0a1628"/>
  <text x="130" y="288" text-anchor="middle" fill="#e2e8f0" font-family="monospace" font-size="10">Find Middle Node</text>
  <text x="390" y="288" text-anchor="middle" fill="#fbbf24" font-family="monospace" font-size="11" font-weight="bold">O(n) &#8212; Linear</text>
  <rect class="bar" x="470" y="276" width="200" height="16" rx="4" fill="#7c3aed"/>
  <rect x="20" y="302" width="680" height="28" rx="4" fill="#0f172a"/>
  <text x="130" y="320" text-anchor="middle" fill="#e2e8f0" font-family="monospace" font-size="10">Detect Loop (Floyd&#39;s)</text>
  <text x="390" y="320" text-anchor="middle" fill="#34d399" font-family="monospace" font-size="11" font-weight="bold">O(n) &#8212; Linear</text>
  <rect class="bar" x="470" y="308" width="200" height="16" rx="4" fill="#047857"/>
  <text x="675" y="320" fill="#6ee7b7" font-family="monospace" font-size="9">O(1) space</text>
  <rect x="20" y="342" width="680" height="28" rx="6" fill="#1e1b4b"/>
  <text x="360" y="360" text-anchor="middle" fill="#94a3b8" font-family="monospace" font-size="10">Space Complexity: O(1) for all operations (no extra arrays) &#10003;</text>
</svg>
