<svg width="680" height="160" viewBox="0 0 680 160" xmlns="http://www.w3.org/2000/svg">
  <defs>
    <linearGradient id="getG" x1="0%" y1="0%" x2="0%" y2="100%">
      <stop offset="0%" style="stop-color:#1e1b4b"/>
      <stop offset="100%" style="stop-color:#312e81"/>
    </linearGradient>
    <linearGradient id="foundG" x1="0%" y1="0%" x2="0%" y2="100%">
      <stop offset="0%" style="stop-color:#1c4532"/>
      <stop offset="100%" style="stop-color:#064e3b"/>
    </linearGradient>
    <marker id="arrowGet" markerWidth="8" markerHeight="8" refX="7" refY="4" orient="auto">
      <polygon points="0 0, 8 4, 0 8" fill="#818cf8"/>
    </marker>
  </defs>
  <rect width="680" height="160" fill="#080d1a" rx="14"/>
  <text x="340" y="22" text-anchor="middle" fill="#fbbf24" font-family="monospace" font-size="12" font-weight="bold">GET(index=2) &#8212; Traverse from head, count steps</text>
  <text x="75" y="38" text-anchor="middle" fill="#64748b" font-family="monospace" font-size="10">[0]</text>
  <text x="215" y="38" text-anchor="middle" fill="#64748b" font-family="monospace" font-size="10">[1]</text>
  <text x="355" y="38" text-anchor="middle" fill="#fbbf24" font-family="monospace" font-size="11" font-weight="bold">[2] &#8592; TARGET</text>
  <text x="495" y="38" text-anchor="middle" fill="#64748b" font-family="monospace" font-size="10">[3]</text>
  <rect x="20" y="45" width="110" height="55" rx="10" fill="url(#getG)" stroke="#4f46e5" stroke-width="1.5"/>
  <line x1="75" y1="45" x2="75" y2="100" stroke="#4f46e5" stroke-width="1"/>
  <text x="47" y="75" text-anchor="middle" fill="#e2e8f0" font-family="monospace" font-size="18" font-weight="bold">10</text>
  <text x="97" y="75" text-anchor="middle" fill="#818cf8" font-family="monospace" font-size="11">&#8594;</text>
  <line x1="130" y1="72" x2="158" y2="72" stroke="#818cf8" stroke-width="2" marker-end="url(#arrowGet)"/>
  <rect x="160" y="45" width="110" height="55" rx="10" fill="url(#getG)" stroke="#4f46e5" stroke-width="1.5"/>
  <line x1="215" y1="45" x2="215" y2="100" stroke="#4f46e5" stroke-width="1"/>
  <text x="187" y="75" text-anchor="middle" fill="#e2e8f0" font-family="monospace" font-size="18" font-weight="bold">20</text>
  <text x="237" y="75" text-anchor="middle" fill="#818cf8" font-family="monospace" font-size="11">&#8594;</text>
  <line x1="270" y1="72" x2="298" y2="72" stroke="#818cf8" stroke-width="2" marker-end="url(#arrowGet)"/>
  <rect x="300" y="45" width="110" height="55" rx="10" fill="url(#foundG)" stroke="#10b981" stroke-width="2.5"/>
  <line x1="355" y1="45" x2="355" y2="100" stroke="#10b981" stroke-width="1"/>
  <text x="327" y="70" text-anchor="middle" fill="#6ee7b7" font-family="monospace" font-size="9">FOUND!</text>
  <text x="327" y="90" text-anchor="middle" fill="#6ee7b7" font-family="monospace" font-size="18" font-weight="bold">30</text>
  <text x="377" y="75" text-anchor="middle" fill="#818cf8" font-family="monospace" font-size="11">&#8594;</text>
  <line x1="410" y1="72" x2="438" y2="72" stroke="#818cf8" stroke-width="2" marker-end="url(#arrowGet)"/>
  <rect x="440" y="45" width="110" height="55" rx="10" fill="url(#getG)" stroke="#4f46e5" stroke-width="1.5"/>
  <line x1="495" y1="45" x2="495" y2="100" stroke="#4f46e5" stroke-width="1"/>
  <text x="467" y="75" text-anchor="middle" fill="#e2e8f0" font-family="monospace" font-size="18" font-weight="bold">40</text>
  <text x="517" y="75" text-anchor="middle" fill="#6b7280" font-family="monospace" font-size="10">null</text>
  <text x="200" y="135" text-anchor="middle" fill="#fbbf24" font-family="monospace" font-size="10">&#8594; temp=head &#8594; step 1 &#8594; step 2 &#8594; return temp (value=30)</text>
  <text x="340" y="150" text-anchor="middle" fill="#475569" font-family="monospace" font-size="9">Time Complexity: O(n)</text>
</svg>
