<svg width="720" height="190" viewBox="0 0 720 190" xmlns="http://www.w3.org/2000/svg">
  <defs>
    <linearGradient id="insN" x1="0%" y1="0%" x2="0%" y2="100%">
      <stop offset="0%" style="stop-color:#1e3a5f"/>
      <stop offset="100%" style="stop-color:#1e40af"/>
    </linearGradient>
    <linearGradient id="insE" x1="0%" y1="0%" x2="0%" y2="100%">
      <stop offset="0%" style="stop-color:#1e1b4b"/>
      <stop offset="100%" style="stop-color:#312e81"/>
    </linearGradient>
    <marker id="arrowIns" markerWidth="8" markerHeight="8" refX="7" refY="4" orient="auto">
      <polygon points="0 0, 8 4, 0 8" fill="#818cf8"/>
    </marker>
    <marker id="arrowInsB" markerWidth="8" markerHeight="8" refX="7" refY="4" orient="auto">
      <polygon points="0 0, 8 4, 0 8" fill="#38bdf8"/>
    </marker>
    <style>
      .ins-node{animation:dropDown 0.7s cubic-bezier(0.34,1.56,0.64,1) forwards}
      @keyframes dropDown{from{opacity:1;transform:translateY(-50px)}to{opacity:1;transform:translateY(0)}}
    </style>
  </defs>
  <rect width="720" height="190" fill="#080d1a" rx="14"/>
  <text x="360" y="22" text-anchor="middle" fill="#38bdf8" font-family="monospace" font-size="12" font-weight="bold">INSERT(index=2, value=25) &#8212; Wire new node between prev and next</text>
  <text x="75" y="40" text-anchor="middle" fill="#64748b" font-family="monospace" font-size="9">[0]</text>
  <text x="215" y="40" text-anchor="middle" fill="#64748b" font-family="monospace" font-size="9">[1]&#8592;prev</text>
  <text x="355" y="40" text-anchor="middle" fill="#38bdf8" font-family="monospace" font-size="9" font-weight="bold">[2] NEW</text>
  <text x="495" y="40" text-anchor="middle" fill="#64748b" font-family="monospace" font-size="9">[3]&#8594;next</text>
  <rect x="20" y="50" width="110" height="55" rx="10" fill="url(#insE)" stroke="#4f46e5" stroke-width="1.5"/>
  <line x1="75" y1="50" x2="75" y2="105" stroke="#4f46e5" stroke-width="1"/>
  <text x="47" y="82" text-anchor="middle" fill="#e2e8f0" font-family="monospace" font-size="18" font-weight="bold">10</text>
  <text x="97" y="82" text-anchor="middle" fill="#818cf8" font-family="monospace" font-size="11">&#8594;</text>
  <line x1="130" y1="77" x2="158" y2="77" stroke="#818cf8" stroke-width="2" marker-end="url(#arrowIns)"/>
  <rect x="160" y="50" width="110" height="55" rx="10" fill="url(#insE)" stroke="#38bdf8" stroke-width="2.5"/>
  <line x1="215" y1="50" x2="215" y2="105" stroke="#38bdf8" stroke-width="1"/>
  <text x="187" y="82" text-anchor="middle" fill="#e2e8f0" font-family="monospace" font-size="18" font-weight="bold">20</text>
  <text x="237" y="82" text-anchor="middle" fill="#818cf8" font-family="monospace" font-size="11">&#8594;</text>
  <g class="ins-node">
    <rect x="300" y="50" width="110" height="55" rx="10" fill="url(#insN)" stroke="#38bdf8" stroke-width="2.5"/>
    <line x1="355" y1="50" x2="355" y2="105" stroke="#38bdf8" stroke-width="1"/>
    <text x="327" y="72" text-anchor="middle" fill="#bae6fd" font-family="monospace" font-size="9">NEW</text>
    <text x="327" y="92" text-anchor="middle" fill="#e2e8f0" font-family="monospace" font-size="18" font-weight="bold">25</text>
    <text x="377" y="82" text-anchor="middle" fill="#38bdf8" font-family="monospace" font-size="11">&#8594;</text>
  </g>
  <line x1="410" y1="77" x2="438" y2="77" stroke="#38bdf8" stroke-width="2.5" marker-end="url(#arrowInsB)"/>
  <rect x="440" y="50" width="110" height="55" rx="10" fill="url(#insE)" stroke="#4f46e5" stroke-width="1.5"/>
  <line x1="495" y1="50" x2="495" y2="105" stroke="#4f46e5" stroke-width="1"/>
  <text x="467" y="82" text-anchor="middle" fill="#e2e8f0" font-family="monospace" font-size="18" font-weight="bold">30</text>
  <text x="517" y="82" text-anchor="middle" fill="#818cf8" font-family="monospace" font-size="11">&#8594;</text>
  <path d="M 215 105 Q 285 150 355 107" stroke="#38bdf8" stroke-width="2" fill="none" stroke-dasharray="6" marker-end="url(#arrowInsB)"/>
  <text x="285" y="148" text-anchor="middle" fill="#38bdf8" font-family="monospace" font-size="9">prev.next = newNode</text>
  <text x="360" y="175" text-anchor="middle" fill="#475569" font-family="monospace" font-size="9">newNode.next = next &#8594; prev.next = newNode &#8594; length++</text>
</svg>
