<svg width="720" height="230" viewBox="0 0 720 230" xmlns="http://www.w3.org/2000/svg">
  <defs>
    <linearGradient id="revG" x1="0%" y1="0%" x2="0%" y2="100%">
      <stop offset="0%" style="stop-color:#1e1b4b"/>
      <stop offset="100%" style="stop-color:#312e81"/>
    </linearGradient>
    <marker id="arrowFwd" markerWidth="8" markerHeight="8" refX="7" refY="4" orient="auto">
      <polygon points="0 0, 8 4, 0 8" fill="#818cf8"/>
    </marker>
    <marker id="arrowBwd" markerWidth="8" markerHeight="8" refX="7" refY="4" orient="auto">
      <polygon points="0 0, 8 4, 0 8" fill="#f472b6"/>
    </marker>
    <style>
      .rev-arrow{animation:reverseFlow 0.5s ease forwards}
      .rev-arrow:nth-child(1){animation-delay:0.3s}
      .rev-arrow:nth-child(2){animation-delay:0.6s}
      .rev-arrow:nth-child(3){animation-delay:0.9s}
      @keyframes reverseFlow{from{opacity:1;stroke-dashoffset:25}to{opacity:1;stroke-dashoffset:0}}
    </style>
  </defs>
  <rect width="720" height="230" fill="#080d1a" rx="14"/>
  <text x="360" y="22" text-anchor="middle" fill="#a78bfa" font-family="monospace" font-size="12" font-weight="bold">REVERSE &#8212; Flip all next pointers</text>
  <text x="50" y="45" fill="#64748b" font-family="monospace" font-size="10">BEFORE:</text>
  <rect x="90" y="50" width="70" height="40" rx="8" fill="url(#revG)" stroke="#4f46e5" stroke-width="1.5"/>
  <text x="125" y="74" text-anchor="middle" fill="#e2e8f0" font-family="monospace" font-size="16" font-weight="bold">10</text>
  <line x1="160" y1="70" x2="185" y2="70" stroke="#818cf8" stroke-width="2" marker-end="url(#arrowFwd)"/>
  <rect x="185" y="50" width="70" height="40" rx="8" fill="url(#revG)" stroke="#4f46e5" stroke-width="1.5"/>
  <text x="220" y="74" text-anchor="middle" fill="#e2e8f0" font-family="monospace" font-size="16" font-weight="bold">20</text>
  <line x1="255" y1="70" x2="280" y2="70" stroke="#818cf8" stroke-width="2" marker-end="url(#arrowFwd)"/>
  <rect x="280" y="50" width="70" height="40" rx="8" fill="url(#revG)" stroke="#4f46e5" stroke-width="1.5"/>
  <text x="315" y="74" text-anchor="middle" fill="#e2e8f0" font-family="monospace" font-size="16" font-weight="bold">30</text>
  <line x1="350" y1="70" x2="375" y2="70" stroke="#818cf8" stroke-width="2" marker-end="url(#arrowFwd)"/>
  <rect x="375" y="50" width="70" height="40" rx="8" fill="url(#revG)" stroke="#4f46e5" stroke-width="1.5"/>
  <text x="410" y="74" text-anchor="middle" fill="#e2e8f0" font-family="monospace" font-size="16" font-weight="bold">40</text>
  <text x="445" y="74" fill="#6b7280" font-family="monospace" font-size="11"> null</text>
  <text x="90" y="48" fill="#a5b4fc" font-family="monospace" font-size="8">HEAD</text>
  <text x="360" y="115" text-anchor="middle" fill="#fbbf24" font-family="monospace" font-size="18">&#8635; reversing...</text>
  <text x="50" y="148" fill="#64748b" font-family="monospace" font-size="10">AFTER:</text>
  <rect x="90" y="152" width="70" height="40" rx="8" fill="url(#revG)" stroke="#7c3aed" stroke-width="2"/>
  <text x="125" y="176" text-anchor="middle" fill="#e2e8f0" font-family="monospace" font-size="16" font-weight="bold">40</text>
  <line class="rev-arrow" x1="160" y1="172" x2="185" y2="172" stroke="#f472b6" stroke-width="2.5" marker-end="url(#arrowBwd)" stroke-dasharray="25"/>
  <rect x="185" y="152" width="70" height="40" rx="8" fill="url(#revG)" stroke="#4f46e5" stroke-width="1.5"/>
  <text x="220" y="176" text-anchor="middle" fill="#e2e8f0" font-family="monospace" font-size="16" font-weight="bold">30</text>
  <line class="rev-arrow" x1="255" y1="172" x2="280" y2="172" stroke="#f472b6" stroke-width="2.5" marker-end="url(#arrowBwd)" stroke-dasharray="25"/>
  <rect x="280" y="152" width="70" height="40" rx="8" fill="url(#revG)" stroke="#4f46e5" stroke-width="1.5"/>
  <text x="315" y="176" text-anchor="middle" fill="#e2e8f0" font-family="monospace" font-size="16" font-weight="bold">20</text>
  <line class="rev-arrow" x1="350" y1="172" x2="375" y2="172" stroke="#f472b6" stroke-width="2.5" marker-end="url(#arrowBwd)" stroke-dasharray="25"/>
  <rect x="375" y="152" width="70" height="40" rx="8" fill="url(#revG)" stroke="#4f46e5" stroke-width="1.5"/>
  <text x="410" y="176" text-anchor="middle" fill="#e2e8f0" font-family="monospace" font-size="16" font-weight="bold">10</text>
  <text x="445" y="176" fill="#6b7280" font-family="monospace" font-size="11"> null</text>
  <text x="90" y="150" fill="#f472b6" font-family="monospace" font-size="8">NEW HEAD</text>
  <text x="360" y="215" text-anchor="middle" fill="#475569" font-family="monospace" font-size="9">3 pointers: prev=null, curr=head, next &#8594; iterate &#8594; swap head&#8596;tail</text>
</svg>
